<svg xmlns="http://www.w3.org/2000/svg" viewBox="0 0 491.9 491.9"><defs><style>.cls-1{fill:#fff;}</style></defs><g id="Layer_2" data-name="Layer 2"><g id="Layer_1-2" data-name="Layer 1"><rect class="cls-1" width="491.9" height="491.9" rx="12"/><path d="M287.08,391A27.93,27.93,0,0,0,307,383a27.31,27.31,0,0,0,8.85-19.45V250.82H176.52V364.46q0,53.07-27,84.46-21.23,24.76-61,24.77a139,139,0,0,1-27.86-3.1l-.89-4.42q32.73-13.71,42-40.68,8.4-23,8.4-61V117.71a27.7,27.7,0,0,0-8.62-19.46,27.25,27.25,0,0,0-19.68-8H76.14V85.87H210.57V90.3h-5.74q-15.93,0-23.88,13.26a28.51,28.51,0,0,0-4.43,14.15V231.8h139.3V125.67q0-51.73,32.28-82.25,25.63-25.2,64.56-25.2a138.15,138.15,0,0,1,18.57,1.32l.89,4.42q-32.28,11.5-42,40.69-8,23.88-8.4,61V363.14q.44,15.92,14.15,23.87a27.75,27.75,0,0,0,14.59,4h5.31v4.43h-134V391Z"/></g></g></svg>