<svg xmlns="http://www.w3.org/2000/svg" viewBox="0 0 372.34 455.47"><defs><style>.cls-1{fill:#fff;}</style></defs><g id="Layer_2" data-name="Layer 2"><g id="Layer_1-2" data-name="Layer 1"><path class="cls-1" d="M227.29,372.78a28,28,0,0,0,19.9-8A27.35,27.35,0,0,0,256,345.36V232.6H116.74V346.25q0,53.06-27,84.46-21.22,24.75-61,24.76A139.72,139.72,0,0,1,.88,452.38L0,448q32.71-13.71,42-40.68,8.4-23,8.4-61V99.5A27.72,27.72,0,0,0,41.79,80a27.21,27.21,0,0,0-19.68-8H16.36V67.66H150.79v4.42H145q-15.91,0-23.88,13.27a28.6,28.6,0,0,0-4.42,14.15V213.58H256V107.46q0-51.75,32.28-82.25Q314,0,352.88,0a136.81,136.81,0,0,1,18.57,1.33l.89,4.42q-32.29,11.51-42,40.68-8,23.88-8.4,61V344.92q.44,15.91,14.15,23.88a27.84,27.84,0,0,0,14.59,4H356v4.42H222v-4.42Z"/></g></g></svg>